<svg xmlns="http://www.w3.org/2000/svg" viewBox="0 0 595.72 487.19"><defs><style>.cls-1,.cls-6,.cls-8{fill:#fff;}.cls-2{fill:#a7a9ac;}.cls-2,.cls-3,.cls-5,.cls-6,.cls-7,.cls-8{stroke:#414042;}.cls-2,.cls-3,.cls-8{stroke-linecap:round;}.cls-2,.cls-3,.cls-6,.cls-7,.cls-8{stroke-linejoin:round;}.cls-3,.cls-5{fill:none;}.cls-4,.cls-7{fill:#414042;}.cls-5{stroke-miterlimit:10;stroke-width:0.75px;}</style></defs><rect class="cls-1" width="595.72" height="487.19" rx="30.23"/><path class="cls-2" d="M1265.5,455.93a14.18,14.18,0,0,0-14.18,14.18v5.14h14.18Z" transform="translate(-1105.44 -296.4)"/><path class="cls-3" d="M1251.32,475.25v9a14.18,14.18,0,0,0,28.35,0v-9h-28.35Z" transform="translate(-1105.44 -296.4)"/><path class="cls-3" d="M1265.5,455.93v19.32h14.17v-5.14A14.18,14.18,0,0,0,1265.5,455.93Z" transform="translate(-1105.44 -296.4)"/><path class="cls-1" d="M1265.5,464.44A2.54,2.54,0,0,0,1263,467v2.53a2.54,2.54,0,0,0,5.07,0V467a2.53,2.53,0,0,0-2.53-2.53" transform="translate(-1105.44 -296.4)"/><path class="cls-3" d="M1265.5,464.44A2.54,2.54,0,0,0,1263,467v2.53a2.54,2.54,0,0,0,5.07,0V467A2.53,2.53,0,0,0,1265.5,464.44Z" transform="translate(-1105.44 -296.4)"/><polyline class="cls-3" points="155.95 149.24 160.06 145.13 164.17 149.24"/><line class="cls-3" x1="160.06" y1="145.13" x2="160.06" y2="153.71"/><polyline class="cls-3" points="164.17 212.34 160.06 216.45 155.95 212.34"/><line class="cls-3" x1="160.06" y1="216.45" x2="160.06" y2="207.88"/><polyline class="cls-3" points="191.61 176.68 195.72 180.79 191.61 184.9"/><line class="cls-3" x1="195.72" y1="180.79" x2="187.15" y2="180.79"/><polyline class="cls-3" points="128.51 184.9 124.4 180.79 128.51 176.68"/><line class="cls-3" x1="124.4" y1="180.79" x2="132.98" y2="180.79"/><path class="cls-2" d="M1400.06,455.93a14.17,14.17,0,0,0-14.17,14.18v5.14h14.17Z" transform="translate(-1105.44 -296.4)"/><path class="cls-3" d="M1385.89,475.25v9a14.17,14.17,0,0,0,28.34,0v-9h-28.34Z" transform="translate(-1105.44 -296.4)"/><path class="cls-3" d="M1400.06,455.93v19.32h14.17v-5.14A14.17,14.17,0,0,0,1400.06,455.93Z" transform="translate(-1105.44 -296.4)"/><path class="cls-1" d="M1400.06,464.44a2.53,2.53,0,0,0-2.53,2.53v2.53a2.53,2.53,0,1,0,5.06,0V467a2.53,2.53,0,0,0-2.53-2.53" transform="translate(-1105.44 -296.4)"/><path class="cls-3" d="M1400.06,464.44a2.53,2.53,0,0,0-2.53,2.53v2.53a2.53,2.53,0,1,0,5.06,0V467A2.53,2.53,0,0,0,1400.06,464.44Z" transform="translate(-1105.44 -296.4)"/><polyline class="cls-3" points="291.65 149.76 287.54 153.87 283.43 149.76"/><line class="cls-3" x1="287.54" y1="153.87" x2="287.54" y2="145.3"/><path class="cls-3" d="M1534.18,455.93A14.17,14.17,0,0,0,1520,470.11v5.14h14.17Z" transform="translate(-1105.44 -296.4)"/><path class="cls-3" d="M1520,475.25v9a14.17,14.17,0,1,0,28.34,0v-9H1520Z" transform="translate(-1105.44 -296.4)"/><path class="cls-3" d="M1534.18,455.93v19.32h14.17v-5.14A14.17,14.17,0,0,0,1534.18,455.93Z" transform="translate(-1105.44 -296.4)"/><path class="cls-2" d="M1534.18,464.44a2.53,2.53,0,0,0-2.53,2.53v2.53a2.53,2.53,0,0,0,5.06,0V467a2.53,2.53,0,0,0-2.53-2.53" transform="translate(-1105.44 -296.4)"/><path class="cls-3" d="M1534.18,464.44a2.53,2.53,0,0,0-2.53,2.53v2.53a2.53,2.53,0,0,0,5.06,0V467A2.53,2.53,0,0,0,1534.18,464.44Z" transform="translate(-1105.44 -296.4)"/><polyline class="cls-3" points="450.26 163.64 454.37 159.53 458.48 163.64"/><line class="cls-3" x1="454.37" y1="159.53" x2="454.37" y2="168.11"/><polyline class="cls-3" points="458.48 197.83 454.37 201.94 450.26 197.83"/><line class="cls-3" x1="454.37" y1="201.94" x2="454.37" y2="193.36"/><path class="cls-4" d="M1225.49,533.37c1.71,0,2.71,1.48,2.71,3.75s-1,3.73-2.71,3.73-2.74-1.49-2.74-3.74S1223.77,533.37,1225.49,533.37Zm0,1c-.9,0-1.53,1-1.53,2.73s.63,2.75,1.53,2.75,1.54-1,1.54-2.75S1226.4,534.38,1225.49,534.38Zm4.52,8.85V532.54h1.22v10.69Z" transform="translate(-1105.44 -296.4)"/><path class="cls-4" d="M1238.24,536.49v1.11h4.23v1h-9.65v-1h4.2v-1.11h-2.93v-3.66h7.15v1h-5.91v1.66h6v1Zm-.59,6.75c-2.36,0-3.7-.76-3.7-2s1.34-1.94,3.69-1.94,3.72.77,3.72,1.94S1240,543.24,1237.65,543.24Zm0-2.92c-1.5,0-2.43.36-2.43,1s.93,1,2.43,1,2.45-.33,2.45-1S1239.15,540.32,1237.64,540.32Z" transform="translate(-1105.44 -296.4)"/><path class="cls-4" d="M1243.82,535.48h1.31v1.27h-1.31Zm0,4.42h1.31v1.27h-1.31Z" transform="translate(-1105.44 -296.4)"/><path class="cls-4" d="M1257.64,536.75h1.63v1h-9.65v-1h6.85a11.23,11.23,0,0,0,.21-1.22l-6.08.31-.16-.94,6.3-.26a7.59,7.59,0,0,0,0-.79h-6v-1H1258A18.06,18.06,0,0,1,1257.64,536.75Zm-6.83,6.34V540.4h6v-.82h-6.08v-1h7.3v2.67h-6v.84h6.41v1Z" transform="translate(-1105.44 -296.4)"/><path class="cls-4" d="M1266.42,538.12a25.28,25.28,0,0,1-4.53.36h-1.35v-3.23h3.55v-1.14h-3.6v-1h4.84v3.05h-3.56v1.29a25,25,0,0,0,4.49-.33Zm1.16,5.11v-2.74h-6v-1h7.19v3.72Zm0-4.27v-6.42h1.22V539Z" transform="translate(-1105.44 -296.4)"/><path class="cls-4" d="M1270.44,539.53a2.49,2.49,0,0,0,1.07-4.14,2,2,0,0,1,2.18-2,1.86,1.86,0,0,1,2.09,1.79c0,1.14-.86,1.71-1.84,2.17l1.74,2.09a5,5,0,0,0,.42-1.68h1.07a5.34,5.34,0,0,1-.83,2.49l1.25,1.49h-1.47l-.55-.65a3.33,3.33,0,0,1-2.2.79C1271.54,541.91,1270.44,541.09,1270.44,539.53Zm4.56.89-2.21-2.6a1.77,1.77,0,0,0-1.12,1.59c0,.94.58,1.56,1.73,1.56A2.44,2.44,0,0,0,1275,540.42Zm-1.73-3.84.13.16c.6-.31,1.21-.72,1.21-1.48a.89.89,0,0,0-.92-1,.92.92,0,0,0-1,1A1.93,1.93,0,0,0,1273.27,536.58Z" transform="translate(-1105.44 -296.4)"/><path class="cls-4" d="M1287.79,541.8h-9.66v-1h9.66Zm-8.42-3.4v-4.9h7.18v1h-6v2.95h6.06v1Z" transform="translate(-1105.44 -296.4)"/><path class="cls-4" d="M1293.61,540.3a20.22,20.22,0,0,1-3.8.33h-.9v-4.1h2.76v-1.8h-2.8v-1h4v3.76h-2.77v2.14a15.61,15.61,0,0,0,3.32-.29Zm2.72,2.93v-5.41h-1.08v4.89h-1.16v-10h1.16v4h1.08v-4.25h1.19v10.69Z" transform="translate(-1105.44 -296.4)"/><path class="cls-4" d="M1298.89,541.67v-1h9.66v1Zm7.93-1.74-1.21-.16a27.6,27.6,0,0,0,.44-5.11h-6v-1h7.28A32.13,32.13,0,0,1,1306.82,539.93Z" transform="translate(-1105.44 -296.4)"/><path class="cls-4" d="M1382.63,538.73a5.32,5.32,0,0,1-2.47-2.39,4.64,4.64,0,0,1-2.51,2.68l-.76-1a4,4,0,0,0,2.64-3.66v-1.24h1.26v1.17a3.83,3.83,0,0,0,2.55,3.45Zm-3.79,4.18v-3.32h1.24v2.34h6v1Zm3.81-6.87v-1h1.94v-2.48h1.24v7.75h-1.24V536Z" transform="translate(-1105.44 -296.4)"/><path class="cls-4" d="M1391.78,536.31H1389v1.1a16.14,16.14,0,0,0,3.3-.26l.16,1a20.2,20.2,0,0,1-3.67.3h-1v-5.08h4.11v1H1389v1.06h2.75Zm3.39,6.92v-2.87h-6.05v-1h7.28v3.85Zm0-4.42v-2.66h-1v2.57H1393v-6h1.17v2.4h1v-2.59h1.18v6.27Z" transform="translate(-1105.44 -296.4)"/><path class="cls-4" d="M1398.41,535.48h1.3v1.27h-1.3Zm0,4.42h1.3v1.27h-1.3Z" transform="translate(-1105.44 -296.4)"/><path class="cls-4" d="M1412.22,536.75h1.64v1h-9.66v-1h6.85a9.23,9.23,0,0,0,.21-1.22l-6.08.31-.16-.94,6.31-.26c0-.29,0-.55,0-.79h-6v-1h7.22A18.06,18.06,0,0,1,1412.22,536.75Zm-6.83,6.34V540.4h6v-.82h-6.08v-1h7.3v2.67h-6v.84H1413v1Z" transform="translate(-1105.44 -296.4)"/><path class="cls-4" d="M1421,538.12a25.24,25.24,0,0,1-4.52.36h-1.36v-3.23h3.55v-1.14h-3.6v-1h4.84v3.05h-3.55v1.29a24.85,24.85,0,0,0,4.48-.33Zm1.16,5.11v-2.74h-6v-1h7.19v3.72Zm0-4.27v-6.42h1.22V539Z" transform="translate(-1105.44 -296.4)"/><path class="cls-4" d="M1499.54,539.39a57.12,57.12,0,0,1-6.73.39l-.18-1c.79,0,1.86,0,2.81,0v-.57c-1.11-.15-1.89-.66-1.89-1.44,0-.94,1.07-1.5,2.49-1.5s2.49.56,2.49,1.5c0,.78-.78,1.29-1.87,1.44v.51c1-.05,2.15-.13,2.77-.23ZM1493,535V534h6V535Zm8.25,5.26v3h-1.22v-2h-5.93v-1Zm-6.72-7.59h3v.93h-3Zm1.47,3.5c-.78,0-1.3.2-1.3.6s.53.6,1.3.6,1.29-.23,1.29-.6S1496.83,536.14,1496,536.14Zm5.25-.31h1.54v1h-1.54v2.82h-1.22v-7.14h1.22Z" transform="translate(-1105.44 -296.4)"/><path class="cls-4" d="M1508.28,540.31a17.49,17.49,0,0,1-3.57.3h-1.08v-6.78h4v1h-2.78v4.77a15.7,15.7,0,0,0,3.24-.26Zm2.83,2.92v-5.41H1510v4.89h-1.17v-10H1510v4h1.08v-4.25h1.18v10.69Z" transform="translate(-1105.44 -296.4)"/><path class="cls-4" d="M1516.2,532.85h1L1514.4,543h-1.06Z" transform="translate(-1105.44 -296.4)"/><path class="cls-4" d="M1522.05,539.86V539h-4.2v-1h9.66v1h-4.23v.87h3v3.4H1525v-2.42H1519v-1Zm4.52-2.36c-1.56-.13-3.28-.81-3.89-1.72-.58.93-2.2,1.59-3.9,1.7l-.52-1c1.69,0,3.32-.66,3.73-1.5h-3.18v-1h7.73v1h-3.14c.4.85,2.14,1.47,3.68,1.51Zm-5.65-5h3.51v1h-3.51Z" transform="translate(-1105.44 -296.4)"/><path class="cls-4" d="M1528.23,541.88v-1h4.2v-2.63h1.23v2.63h4.23v1Zm8.71-3.55a6.08,6.08,0,0,1-3.88-2.94,5.76,5.76,0,0,1-3.89,2.94l-.6-1c1.75-.28,3.86-1.72,3.86-3.55v-.64h1.29v.64c0,1.81,2.25,3.29,3.86,3.59Z" transform="translate(-1105.44 -296.4)"/><path class="cls-4" d="M1539.24,535.48h1.3v1.27h-1.3Zm0,4.42h1.3v1.27h-1.3Z" transform="translate(-1105.44 -296.4)"/><path class="cls-4" d="M1545,541.81v-1h9.66v1Zm8.76-3.33a6.33,6.33,0,0,1-3.93-2.93c-.5,1.32-2.33,2.53-3.95,2.93l-.6-1c1.74-.28,3.92-1.73,3.92-3.58v-.7h1.28v.7c0,1.84,2.32,3.34,3.93,3.63Z" transform="translate(-1105.44 -296.4)"/><path class="cls-4" d="M1555.41,541.77v-1h9.66v1Zm8-1.64-1.19-.12a15.43,15.43,0,0,0,.35-2.48l-6.16.35-.15-1,6.35-.3c0-.64,0-1.29.06-1.89h-6.08v-1h7.32A30.38,30.38,0,0,1,1563.37,540.13Z" transform="translate(-1105.44 -296.4)"/><path class="cls-4" d="M1571.21,536.77v.72h4.24v1h-9.66v-1h4.2v-.72h-2.91v-2.31h5.84v-.65H1567v-.9h7.11v2.34h-5.84v.64h6.08v.88Zm-4.18,6.37v-2.43h5.91V540h-6v-.89h7.18v2.45h-5.92v.71h6.32v.87Z" transform="translate(-1105.44 -296.4)"/><path class="cls-4" d="M1289,354.93l-1.54-1.87a14.23,14.23,0,0,0,8.48-11.23h-7.23v-2h9.87C1298.43,346.44,1295.19,351.55,1289,354.93Zm15.19-7v11h-2.47V337.56h2.47v8.35h3.17v2Z" transform="translate(-1105.44 -296.4)"/><path class="cls-4" d="M1319.33,349a10,10,0,0,1-4.87-4.56,8.94,8.94,0,0,1-5,5.14l-1.51-1.95c3.07-1.25,5.26-3.79,5.26-7.08v-2h2.54v1.92a7.33,7.33,0,0,0,5,6.65Zm-1.34,10c-4.56,0-7.23-1.7-7.23-4.25s2.67-4.27,7.23-4.27,7.27,1.68,7.27,4.27S1322.57,358.94,1318,358.94Zm0-6.53c-3,0-4.7.84-4.7,2.28S1315,357,1318,357s4.75-.84,4.75-2.26S1321,352.41,1318,352.41Zm7-7.63v5.42h-2.47V337.56H1325v5.18h3.15v2Z" transform="translate(-1105.44 -296.4)"/><path class="cls-4" d="M1329.12,356.23v-2h8.41v-4.92h-6v-10.1h14.55v10.1H1340v4.92h8.48v2Zm14.5-15H1334v6.2h9.65Z" transform="translate(-1105.44 -296.4)"/><path class="cls-4" d="M1360,347.42a36.55,36.55,0,0,1-7.06.58h-2.16v-9.29h8v1.94h-5.52v5.4a29.64,29.64,0,0,0,6.46-.55Zm-6.24,11.35v-5.45h11.69v-1.67H1353.6v-2h14.29v5.47H1356.2v1.68h12.38v1.94Zm4-14.85V342h3.67v-4.1h2.33v10.51h-2.33v-4.53Zm7.75,4.68v-11h2.36v11Z" transform="translate(-1105.44 -296.4)"/><path class="cls-4" d="M1370.48,344.54v-2h12.43v2Zm6.26,10.15c-3.07,0-5.14-1.92-5.14-4.56s2.07-4.56,5.14-4.56,5.09,1.95,5.09,4.56S1379.79,354.69,1376.74,354.69Zm-3.24-15.89H1380v2h-6.48Zm3.24,8.79a2.55,2.55,0,1,0,0,5.09,2.45,2.45,0,0,0,2.66-2.55A2.5,2.5,0,0,0,1376.74,347.59Zm10.51-1.25h3.32v2.06h-3.32v10.54h-2.47V337.56h2.47Z" transform="translate(-1105.44 -296.4)"/><path class="cls-4" d="M1399.8,359v-7.28h-8.4v-2h19.33v2h-8.48V359Zm1.23-11.26c-4.61,0-7.51-1.87-7.51-4.71s2.9-4.65,7.51-4.65,7.51,1.89,7.51,4.65S1405.66,347.71,1401,347.71Zm0-7.37c-3.07,0-5,1.13-5,2.66s1.9,2.67,5,2.67,5-1.11,5-2.67S1404.1,340.34,1401,340.34Z" transform="translate(-1105.44 -296.4)"/><path class="cls-4" d="M1412.16,356.11v-2h19.33v2Zm17.52-6.67c-3.14-.84-6.76-3.27-7.87-5.86-1,2.64-4.65,5.06-7.89,5.86l-1.2-2c3.48-.55,7.84-3.46,7.84-7.15v-1.42h2.57v1.42c0,3.67,4.63,6.67,7.85,7.25Z" transform="translate(-1105.44 -296.4)"/><path class="cls-4" d="M1452.51,350.11a114.22,114.22,0,0,1-13.47.79l-.36-2c1.59,0,3.72,0,5.64,0v-1c-2.32-.24-3.77-1.2-3.77-2.64,0-1.66,2-2.74,5-2.74s5,1.08,5,2.74c0,1.42-1.44,2.38-3.72,2.62v.93c2-.12,4.27-.29,5.52-.48Zm-13-8.07v-1.8h12V342Zm2.66,16.93v-4.49h11.4V353.3h-11.47v-1.7H1456v4.46h-11.38v1.2h12.15V359Zm.41-21.32h6v1.75h-6Zm2.93,6.53c-1.54,0-2.57.41-2.57,1.08s1,1.06,2.57,1.06,2.59-.41,2.59-1.06S1447.06,344.18,1445.5,344.18Zm10.51,1.37v4.89h-2.45V337.56H1456v5.95h3.07v2Z" transform="translate(-1105.44 -296.4)"/><path class="cls-4" d="M1474.56,345.12v2.76h4.76v2H1460v-2h4.68v-2.81a3.54,3.54,0,0,1-2.42-3.19c0-2.38,2.69-4,7.39-4s7.44,1.66,7.44,4C1477.08,343.27,1476.2,344.4,1474.56,345.12Zm-4.89,13.8c-4.68,0-7.42-1.44-7.42-3.91s2.74-3.89,7.39-3.89,7.44,1.46,7.44,3.89S1474.35,358.92,1469.67,358.92Zm0-19.2c-3.05,0-4.87.84-4.87,2.16s1.82,2.16,4.87,2.16,4.9-.82,4.9-2.16S1472.72,339.72,1469.64,339.72Zm0,13.34c-3,0-4.87.72-4.87,2s1.9,1.92,4.87,1.92,4.9-.65,4.9-1.92S1472.62,353.06,1469.64,353.06Zm-2.52-7.3v2.12h5v-2.09a15.71,15.71,0,0,1-2.45.14A13.64,13.64,0,0,1,1467.12,345.76Z" transform="translate(-1105.44 -296.4)"/><path class="cls-4" d="M1491.72,341.66h-4.82V339.6H1499v2.06h-4.78V356h-2.47Z" transform="translate(-1105.44 -296.4)"/><path class="cls-4" d="M1501.51,339.6h2.5V356h-2.5Z" transform="translate(-1105.44 -296.4)"/><path class="cls-4" d="M1507.92,339.6h5.43c3.77,0,5.61,1.77,5.61,4.94,0,3.38-2.16,5.16-5.4,5.16h-3.17V356h-2.47Zm5.16,8.16c2.38,0,3.27-1,3.27-3,0-2.23-.87-3.12-3.22-3.12h-2.74v6.15Z" transform="translate(-1105.44 -296.4)"/><line class="cls-5" x1="48.82" y1="108.45" x2="546.9" y2="108.45"/><rect class="cls-1" x="234.42" y="96.21" width="126.88" height="24.75"/><path class="cls-4" d="M1365.86,407.91h-5V401h5Zm-1.24-5.92h-2.53v5h2.53Zm4.24,2.18h1.64v1h-1.64v5.49h-1.24V400h1.24Z" transform="translate(-1105.44 -296.4)"/><path class="cls-4" d="M1375.13,410.69v-3.63h-4.19v-1h9.65v1h-4.23v3.63Zm.62-5.62c-2.31,0-3.76-.94-3.76-2.35s1.45-2.33,3.76-2.33,3.75.95,3.75,2.33S1378.06,405.07,1375.75,405.07Zm0-3.68c-1.54,0-2.49.56-2.49,1.33s1,1.33,2.49,1.33,2.48-.55,2.48-1.33S1377.28,401.39,1375.75,401.39Z" transform="translate(-1105.44 -296.4)"/><path class="cls-4" d="M1381.32,409.27v-1H1391v1Zm8.75-3.34a6.35,6.35,0,0,1-3.93-2.92c-.49,1.32-2.33,2.53-4,2.92l-.6-1c1.74-.28,3.92-1.73,3.92-3.58v-.71h1.29v.71c0,1.84,2.31,3.34,3.92,3.62Z" transform="translate(-1105.44 -296.4)"/><path class="cls-4" d="M1397.12,406.56v1.78h4.23v1h-9.65v-1h4.19v-1.78h-3V403.1h6v-1.38h-6v-1h7.2v3.36h-5.93v1.46h6.25v1Z" transform="translate(-1105.44 -296.4)"/><path class="cls-4" d="M1410.19,403.63h-3.36v1.14a22,22,0,0,0,4.3-.3l.18.95a21.68,21.68,0,0,1-4.65.36h-1.06v-5.17h4.78v1h-3.55v1.07h3.36Zm-3.51,6.91v-3.92h6.85v3.92Zm5.62-3h-4.38v2h4.38Zm1.23-4V406h-1.23v-6h1.23v2.53h1.56v1Z" transform="translate(-1105.44 -296.4)"/><path class="cls-4" d="M1420.36,405.74a4.52,4.52,0,0,1-2-1.95,4.56,4.56,0,0,1-2.09,2.29l-.71-.87a3.89,3.89,0,0,0,2.17-3.41v-1.13h1.19v1.09a3.49,3.49,0,0,0,2.08,3.07Zm4.26,1.07v3.88h-1.22v-2.9h-6.05v-1Zm-1.18-.52v-2.67h-1v2.54h-1.16v-6h1.16v2.41h1V400h1.18v6.29Z" transform="translate(-1105.44 -296.4)"/><path class="cls-4" d="M1425.91,403.49v-1h6.21v1Zm3.13,5.07a2.33,2.33,0,0,1-2.57-2.28A2.36,2.36,0,0,1,1429,404a2.29,2.29,0,1,1,0,4.56Zm-1.62-7.94h3.24v1h-3.24ZM1429,405a1.27,1.27,0,1,0,0,2.54,1.22,1.22,0,0,0,1.33-1.27A1.25,1.25,0,0,0,1429,405Zm5.25-.62H1436v1h-1.66v5.26h-1.23V400h1.23Z" transform="translate(-1105.44 -296.4)"/><path class="cls-4" d="M1437.09,408.68l-.77-.94a7.13,7.13,0,0,0,4.26-5.61H1437v-1h5A8.49,8.49,0,0,1,1437.09,408.68Zm6.86,2V400h1.23v10.68Z" transform="translate(-1105.44 -296.4)"/><line class="cls-5" x1="48.82" y1="298.4" x2="546.9" y2="298.4"/><rect class="cls-1" x="234.42" y="286.16" width="126.88" height="24.75"/><path class="cls-4" d="M1356.93,597.93h-1.06v-7h1.22v5.92a15.65,15.65,0,0,0,3.17-.31l.18,1A22.08,22.08,0,0,1,1356.93,597.93Zm4.12,2.19v-5.74h-2.18v-1h2.18v-3.2h1.17v10Zm2.14.51V589.94h1.17v10.69Z" transform="translate(-1105.44 -296.4)"/><path class="cls-4" d="M1366.28,597.88v-7.06h1.23v2.6h2.56v-2.61h1.24v7.07Zm3.79-3.49h-2.56v2.5h2.56Zm3.25,6.24V589.94h1.22v10.69Z" transform="translate(-1105.44 -296.4)"/><path class="cls-4" d="M1376.75,598.47l-.81-.84a6.73,6.73,0,0,0,3.49-5.39h-2.88v-1h4.09A8.11,8.11,0,0,1,1376.75,598.47Zm5.12,1.66v-4.88h-1.42v-1h1.42v-4.08H1383v10Zm2.09.5V589.94h1.17v10.69Z" transform="translate(-1105.44 -296.4)"/><path class="cls-4" d="M1389.55,590.77c1.72,0,2.71,1.49,2.71,3.76s-1,3.73-2.71,3.73-2.73-1.49-2.73-3.75S1387.84,590.77,1389.55,590.77Zm0,1c-.9,0-1.52,1-1.52,2.73s.62,2.75,1.52,2.75,1.55-1,1.55-2.75S1390.46,591.78,1389.55,591.78Zm4.53,8.85V589.94h1.22v10.69Z" transform="translate(-1105.44 -296.4)"/><path class="cls-4" d="M1402.5,596.34a5.47,5.47,0,0,1-2.46-2.46,4.9,4.9,0,0,1-2.53,2.76l-.74-1a4.17,4.17,0,0,0,2.62-3.77v-1.36h1.26v1.31a3.93,3.93,0,0,0,2.56,3.53Zm-3.79,4V597H1400v2.35h6v1Zm4-7.88v-1h1.72v-1.53h1.23v7.75h-1.23v-3.08h-1.72v-1h1.72v-1.15Z" transform="translate(-1105.44 -296.4)"/><path class="cls-4" d="M1417.06,596.22a57.12,57.12,0,0,1-6.73.39l-.18-1H1413v-.51c-1.17-.12-1.89-.6-1.89-1.32s1-1.36,2.47-1.36,2.5.54,2.5,1.36-.72,1.19-1.86,1.31v.47c1-.06,2.13-.14,2.76-.24Zm-6.5-4v-.9h6v.9Zm1.33,8.45V598.4h5.69v-.59h-5.73V597h7v2.23h-5.69v.6h6.07v.85Zm.2-10.65h3v.88h-3Zm1.46,3.26c-.76,0-1.28.21-1.28.54s.52.53,1.28.53,1.3-.2,1.3-.53S1414.33,593.25,1413.55,593.25Zm5.26.69v2.44h-1.23v-6.44h1.23v3h1.53v1Z" transform="translate(-1105.44 -296.4)"/><path class="cls-4" d="M1428.08,593.72v1.38h2.38v1h-9.66v-1h2.34v-1.4a1.76,1.76,0,0,1-1.21-1.6c0-1.18,1.34-2,3.69-2s3.72.83,3.72,2A1.79,1.79,0,0,1,1428.08,593.72Zm-2.44,6.9c-2.34,0-3.71-.72-3.71-2s1.37-1.94,3.69-1.94,3.72.73,3.72,1.94S1428,600.62,1425.64,600.62Zm0-9.6c-1.52,0-2.43.42-2.43,1.08s.91,1.08,2.43,1.08,2.45-.4,2.45-1.08S1427.16,591,1425.62,591Zm0,6.67c-1.48,0-2.43.36-2.43,1s1,1,2.43,1,2.45-.32,2.45-1S1427.11,597.69,1425.62,597.69Zm-1.25-3.64v1.05h2.49v-1a7.79,7.79,0,0,1-1.22.07A7.21,7.21,0,0,1,1424.37,594.05Z" transform="translate(-1105.44 -296.4)"/><path class="cls-4" d="M1431.1,593.43v-1h6.21v1Zm3.13,5.08a2.33,2.33,0,0,1-2.57-2.28,2.36,2.36,0,0,1,2.57-2.28,2.29,2.29,0,1,1,0,4.56Zm-1.62-7.94h3.24v1h-3.24Zm1.62,4.39a1.27,1.27,0,1,0,0,2.54,1.22,1.22,0,0,0,1.33-1.27A1.25,1.25,0,0,0,1434.23,595Zm5.25-.63h1.66v1h-1.66v5.26h-1.23V589.94h1.23Z" transform="translate(-1105.44 -296.4)"/><path class="cls-4" d="M1442.28,598.63l-.77-.94a7.14,7.14,0,0,0,4.26-5.61h-3.63v-1h4.95A8.47,8.47,0,0,1,1442.28,598.63Zm6.86,2V589.94h1.23v10.69Z" transform="translate(-1105.44 -296.4)"/><polygon class="cls-6" points="207.67 382.25 185.63 373.9 185.63 357.21 207.67 365.56 207.67 382.25"/><polygon class="cls-6" points="219.87 373.05 207.67 382.25 207.67 365.56 219.87 356.36 219.87 373.05"/><polygon class="cls-6" points="219.87 356.36 197.83 347.59 185.63 357.21 207.67 365.56 219.87 356.36"/><polygon class="cls-7" points="199.54 379.17 193.16 376.75 193.16 365.95 199.54 368.37 199.54 379.17"/><rect class="cls-8" x="281.61" y="351.34" width="33.31" height="27.16"/><polyline class="cls-3" points="300.66 378.5 300.66 366.59 307.35 366.59"/><line class="cls-3" x1="300.66" y1="351.34" x2="300.66" y2="359.53"/><circle class="cls-8" cx="114.53" cy="352.48" r="4.35"/><path class="cls-8" d="M1214,658.55s-3.07,4.14-3.6,5.21a2.84,2.84,0,0,1-3,1.2c-1.2-.33-2-1.6-.94-3.82,1.4-2.8,4.46-6.46,6.24-7.57s3.84-.76,6.19-.43,4.06,1.83,4.33,2.57.33,3.22,1.74,4.36,3.91,2.18,4.22,3.15c.53,1.61-.48,2.95-2.34,2.94-1.48,0-5.45-1.94-6.55-4,0,0,2.34,5.56,2.6,6.36a37.87,37.87,0,0,1,1.74,7.28c.06,1.82-1.48,2.45-2.82,2.31s-2.59-1.56-3.19-4.11-1.07-5.27-1.87-6.21a82.3,82.3,0,0,1-4.46,7.17c-1.07,1.21-3.28,3.17-5,3.16s-3.07-.84-2.87-2.65,2.22-2.65,3.13-3.47a15.68,15.68,0,0,0,3.36-4.48c.79-1.73.79-3.8.18-4.61" transform="translate(-1105.44 -296.4)"/><rect class="cls-8" x="376.65" y="348.26" width="33.31" height="33.31"/><circle class="cls-8" cx="393.31" cy="364.92" r="9.89"/><polygon class="cls-8" points="399.72 365.08 389.74 370.84 389.74 359.32 399.72 365.08"/><circle class="cls-8" cx="484.23" cy="364.92" r="16.29"/><line class="cls-3" x1="484.23" y1="358.99" x2="484.23" y2="370.85"/><line class="cls-3" x1="490.16" y1="364.92" x2="478.3" y2="364.92"/><path class="cls-4" d="M1198,713v-3.69c-.94,0-1.89,0-2.86,0l-.17-1c1.24,0,2.43,0,3.63,0,1.47-.07,2.63-.16,3.62-.26l.08.94c-1,.12-2,.21-3.07.27V713Zm.6-5.52c-1.63,0-2.71-1-2.71-2.18s1.08-2.25,2.71-2.25,2.73,1,2.73,2.25S1200.22,707.5,1198.62,707.5Zm0-3.41c-.86,0-1.49.48-1.49,1.22s.63,1.18,1.49,1.18,1.51-.46,1.51-1.18S1199.49,704.09,1198.62,704.09Zm2,5.8h2.29v-7.24h1.23v10.68h-1.23v-2.48h-2.29Z" transform="translate(-1105.44 -296.4)"/><path class="cls-4" d="M1206.41,709.09l-.64-1a6.13,6.13,0,0,0,3.23-2l-3,.32-.24-1,3.8-.29a3.55,3.55,0,0,0,.24-.82h-3.55v-1h4.9C1211.12,706.22,1209.2,708.28,1206.41,709.09Zm4.41,4.24c-2.3,0-3.62-.86-3.62-2.11s1.32-2.13,3.62-2.13,3.67.86,3.67,2.13S1213.15,713.33,1210.82,713.33Zm0-3.24c-1.48,0-2.36.42-2.36,1.13s.88,1.12,2.36,1.12,2.4-.42,2.4-1.12S1212.34,710.09,1210.82,710.09Zm2.35-1.11v-6.33h1.22V709Z" transform="translate(-1105.44 -296.4)"/><path class="cls-4" d="M1216,712v-1h4.2v-2.45h-3v-5h7.27v5h-3V711h4.24v1Zm7.25-7.51h-4.83v3.09h4.83Z" transform="translate(-1105.44 -296.4)"/><path class="cls-4" d="M1236,711.91h-9.66v-1H1236Zm-8.42-3.4v-4.9h7.18v1h-6v2.95h6.06v1Z" transform="translate(-1105.44 -296.4)"/><path class="cls-4" d="M1284.42,711.43l.22-.93a3.94,3.94,0,0,0,1.85.49c1.21,0,1.87-.51,1.87-1.46s-.69-1.37-1.81-1.38h-.79v-.95h.71c1,0,1.63-.49,1.63-1.31s-.58-1.22-1.51-1.22a4.05,4.05,0,0,0-1.73.49l-.16-.95a4.77,4.77,0,0,1,2.2-.56c1.49,0,2.47.73,2.47,2a2,2,0,0,0,.29,3.92c0,1.46-1.14,2.42-3,2.42A4.28,4.28,0,0,1,1284.42,711.43Z" transform="translate(-1105.44 -296.4)"/><path class="cls-4" d="M1291.24,703.67h2.57c2.49,0,3.9,1.24,3.9,3.87v.25c0,2.59-1.24,4.09-3.88,4.09h-2.59Zm2.62,7.18c1.73,0,2.52-.84,2.52-2.9v-.41c0-2.16-1-2.84-2.67-2.84h-1.23v6.15Z" transform="translate(-1105.44 -296.4)"/><path class="cls-4" d="M1301.74,712v-1h4.2v-2.45h1.23V711h4.23v1Zm8.71-3.14a6,6,0,0,1-3.87-2.82c-.52,1.35-2.33,2.44-3.91,2.82l-.6-1c1.69-.24,3.8-1.56,3.86-3.35h-3.32v-1h7.93v1h-3.32c.08,1.78,2.3,3.12,3.87,3.38Z" transform="translate(-1105.44 -296.4)"/><path class="cls-4" d="M1312.64,708.7l-.62-1c1.86-.35,3.77-1.53,4.07-3.38h-3.55v-1h4.91C1317.38,706.23,1315.43,708,1312.64,708.7Zm.95,4.5v-4h6.83v4Zm5.6-3.06h-4.37v2.09h4.37Zm1.23-3.93v2.43h-1.23v-6h1.23v2.53H1322v1Z" transform="translate(-1105.44 -296.4)"/><path class="cls-4" d="M1327.92,708.38V711h4.24v1h-9.66v-1h4.2v-2.61h-2.94v-4.92h7.15v1H1325v2.92h6v1Z" transform="translate(-1105.44 -296.4)"/><path class="cls-4" d="M1473.76,710.81a6.34,6.34,0,0,1-2.63-3,5.67,5.67,0,0,1-2.64,3.26l-.77-.91a5.33,5.33,0,0,0,2.77-4.82v-.56h-2.23v-1h5.68v1h-2.17v.56a5.13,5.13,0,0,0,2.69,4.61Zm2.5-4h1.62v1h-1.62v5.47H1475V702.65h1.23Z" transform="translate(-1105.44 -296.4)"/><path class="cls-4" d="M1483.76,706.59v1.12H1488v1h-9.66v-1h4.2v-1.12h-2.92v-3.66h7.14v1h-5.91v1.66h6v1Zm-.58,6.76c-2.37,0-3.71-.76-3.71-2s1.34-1.94,3.7-1.94,3.71.76,3.71,1.94S1485.53,713.35,1483.18,713.35Zm0-2.92c-1.5,0-2.44.36-2.44,1s.94,1,2.44,1,2.44-.34,2.44-1S1484.68,710.43,1483.17,710.43Z" transform="translate(-1105.44 -296.4)"/><path class="cls-4" d="M1492.92,713.3v-3.56h-4.2v-1h9.66v1h-4.24v3.56Zm-1.73-7.38v.89h6v1H1490v-4.7h7.17v1h-5.94V705h5.6v1Z" transform="translate(-1105.44 -296.4)"/><path class="cls-4" d="M1501.91,703.39c1.58,0,2.55,1.31,2.71,3.25h2.05v-4h1.24v10.68h-1.24v-5.68h-2c-.13,2-1.1,3.33-2.72,3.33s-2.71-1.53-2.71-3.79S1500.19,703.39,1501.91,703.39Zm0,1c-.88,0-1.51,1.1-1.51,2.82s.63,2.8,1.51,2.8,1.55-1.11,1.55-2.8S1502.82,704.39,1501.91,704.39Z" transform="translate(-1105.44 -296.4)"/><path class="cls-4" d="M1514.05,710.83a5.34,5.34,0,0,1-1.94-2.62,5.13,5.13,0,0,1-2.09,2.86l-.77-.83a5.21,5.21,0,0,0,2.27-4.61v-.74h-1.88v-1h4.83v1h-1.75v.71a4.8,4.8,0,0,0,2,4.34Zm3.26,2.5v-5.41h-1v4.91h-1.16v-10h1.16v4h1v-4.24h1.18v10.68Z" transform="translate(-1105.44 -296.4)"/><path class="cls-4" d="M1524.61,708.42a4.61,4.61,0,0,1-2-2,4.5,4.5,0,0,1-2.09,2.3l-.71-.86a3.92,3.92,0,0,0,2.17-3.42v-1.16h1.19v1.12a3.48,3.48,0,0,0,2.08,3.07Zm.67,4.9c-2.3,0-3.68-.84-3.68-2.1s1.38-2.12,3.68-2.12,3.7.84,3.7,2.12S1527.61,713.32,1525.28,713.32Zm0-3.21c-1.49,0-2.41.4-2.41,1.11s.92,1.12,2.41,1.12,2.43-.42,2.43-1.12S1526.78,710.11,1525.28,710.11Zm2.41-1v-2.81h-1v2.35h-1.16v-5.86h1.16v2.48h1v-2.67h1.18v6.51Z" transform="translate(-1105.44 -296.4)"/><path class="cls-4" d="M1574.69,706.74v.82h4.23v1h-9.65v-1h4.2v-.84c-2-.13-3.07-.87-3.07-2s1.35-2,3.69-2,3.71.78,3.71,2S1576.67,706.62,1574.69,706.74Zm-4.17,6.46v-4h1.23v1.08h4.7v-1.1h1.23v4.06Zm3.57-9.51c-1.52,0-2.43.4-2.43,1s.91,1.06,2.43,1.06,2.44-.4,2.44-1.06S1575.63,703.69,1574.09,703.69Zm2.36,7.51h-4.7v1h4.7Z" transform="translate(-1105.44 -296.4)"/><path class="cls-4" d="M1585.26,709a5.42,5.42,0,0,1-2.46-2.46,4.9,4.9,0,0,1-2.53,2.76l-.74-1a4.17,4.17,0,0,0,2.63-3.77v-1.35h1.26v1.3a3.91,3.91,0,0,0,2.55,3.53Zm-3.79,4V709.7h1.25v2.35h6v1Zm4-7.88v-1h1.72v-1.52h1.23v7.74h-1.23v-3.08h-1.72v-1h1.72v-1.15Z" transform="translate(-1105.44 -296.4)"/><path class="cls-4" d="M1596.66,709.5a57,57,0,0,1-6.73.39l-.18-1c.79,0,1.86,0,2.81,0v-.58c-1.1-.14-1.88-.66-1.88-1.44,0-.93,1.06-1.49,2.48-1.49s2.49.56,2.49,1.49c0,.78-.78,1.3-1.87,1.44v.52c1,0,2.15-.13,2.77-.23Zm-6.5-4.42v-.93h6v.93Zm8.25,5.25v3h-1.22v-2h-5.93v-1Zm-6.71-7.59h3v.94h-3Zm1.46,3.51c-.78,0-1.3.2-1.3.59s.53.6,1.3.6,1.29-.22,1.29-.6S1594,706.25,1593.16,706.25Zm5.25-.32H1600v1h-1.54v2.82h-1.22v-7.13h1.22Z" transform="translate(-1105.44 -296.4)"/><path class="cls-4" d="M1603.47,708.67a2.62,2.62,0,1,1,2.73-2.62A2.58,2.58,0,0,1,1603.47,708.67Zm0-4.21a1.58,1.58,0,0,0,0,3.16,1.58,1.58,0,0,0,0-3.16Zm-1.33,8.56v-3.36h1.22V712h6.09v1Zm5.84-2.63v-7.74h1.22v7.74Z" transform="translate(-1105.44 -296.4)"/><path class="cls-4" d="M1394.88,708.38a26.66,26.66,0,0,1-3,.29c-1.09.05-2.31.08-3.34.08l-.12-1h1.43l-.28-2.77,1.2-.11.16,2.86c.3,0,.71,0,1.19-.05l.15-2.82,1.19.1-.28,2.66c.64,0,1.24-.09,1.64-.16Zm-6.15-4.08v-1h5.62v1Zm5,9c-2.31,0-3.63-.83-3.63-2.08s1.32-2.09,3.63-2.09,3.65.83,3.65,2.09S1396,713.31,1393.71,713.31Zm-2.37-2.08c0,.69.89,1.08,2.37,1.08s2.41-.39,2.41-1.08-.89-1.09-2.41-1.09S1391.34,710.54,1391.34,711.23Zm3.27-7.05h1.46v-1.53h1.22V709h-1.22v-1.87h-1.46v-1h1.46v-.95h-1.46Z" transform="translate(-1105.44 -296.4)"/><path class="cls-4" d="M1399.34,708.51v-4.94h4.88v4.94Zm3.64-4h-2.42v3H1403Zm-2.29,8.49v-3.3h1.24V712h6v1Zm4.08-8.67h1.67v-1.7h1.22v7.74h-1.22v-2.68h-1.67v-1h1.67v-1.35h-1.67Z" transform="translate(-1105.44 -296.4)"/><path class="cls-4" d="M1414.67,708.38V711h4.23v1h-9.65v-1h4.2v-2.61h-2.94v-4.92h7.15v1h-5.92v2.92h6v1Z" transform="translate(-1105.44 -296.4)"/></svg>